<svg role="img" version="1.1"
	xmlns="http://www.w3.org/2000/svg" xmlns:xlink="http://www.w3.org/1999/xlink" x="0px" y="0px"
	viewBox="0 0 4472.7602539 1329.9650879" enable-background="new 0 0 4472.7602539 1329.9650879" xml:space="preserve">
	<g>
		<path fill="#F5AA00" d="M4070.8491211,791.012146l182.1640625,24.0618286
			c5.4614258,0.7313232,10.5258789-3.1585693,11.1948242-8.6353149
			c5.9277344-50.8392944,5.9746094-102.1987915,0.1635742-152.9680176
			c-0.6225586-5.4568481-5.6943359-9.3427124-11.1713867-8.6313477l-182.2106934,23.6890259
			c-5.3676758,0.7073975-9.1022949,5.5738525-8.510498,10.9494629
			c3.6096191,33.3894043,3.5786133,67.1213989-0.1088867,100.5650024
			C4061.7629395,785.4031982,4065.489502,790.2808228,4070.8491211,791.012146"/>
		<path fill="#E62D8C" d="M3978.942627,1011.925293l145.7102051,111.907959
			c4.371582,3.368042,10.7119141,2.52771,14.0180664-1.9143066
			c30.550293-41.0289307,56.2919922-85.4570312,76.6201172-132.3204956
			c2.1938477-5.0568848-0.2490234-10.9614258-5.3447266-13.0852051l-169.6464844-70.5524292
			c-5.0100098-2.0927124-10.6660156,0.241394-12.8598633,5.1812134
			c-13.5280762,30.7446289-30.4331055,59.956604-50.3874512,87.0447998
			C3973.8554688,1002.5435181,3974.6640625,1008.6264648,3978.942627,1011.925293"/>
		<path fill="#009682" d="M4039.9960938,553.7110596l169.7949219-70.2058716
			c5.0874023-2.1086426,7.5458984-8.0243225,5.3598633-13.0852356
			c-20.2729492-47.0115662-45.8984375-91.5368652-76.3320312-132.5539551
			c-3.2988281-4.4307251-9.6391602-5.2862854-14.0029297-1.9373169l-145.9433594,111.6665955
			c-4.3017578,3.2788391-5.0952148,9.370636-1.8903809,13.7344971
			c19.814209,27.0762024,36.6491699,56.3232422,50.1621094,87.145874
			C4029.3303223,553.4346313,4034.9782715,555.7918091,4039.9960938,553.7110596"/>
		<path fill="#E6001E" d="M493.8205872,447.8828735L348.0993958,335.9406433
			c-4.3678589-3.3609314-10.7081299-2.5284729-14.0108948,1.925354
			c-30.5534668,41.0170898-56.2881775,85.4730835-76.6194458,132.3787231
			c-2.2058258,5.0489502,0.2405701,10.9534607,5.3445129,13.0661011l169.6348877,70.575531
			c5.0178528,2.0687866,10.6809998-0.2764282,12.8557739-5.2242432
			c13.551239-30.7095947,30.4562988-59.9096069,50.3987732-87.0328064
			C498.9006348,457.2885437,498.0992126,451.1968079,493.8205872,447.8828735"/>
		<path fill="#A5C80F" d="M401.8981934,668.8158569l-182.1632996-24.0888672
			c-5.4576263-0.7201538-10.5256958,3.1737061-11.175705,8.6583862
			c-5.9276581,50.838562-6.0017395,102.1988525-0.1713104,152.960083
			c0.630127,5.4767456,5.683075,9.3347778,11.1757507,8.6584473l182.1911621-23.7200928
			c5.3795166-0.7073975,9.1133118-5.5699463,8.5301514-10.9534912
			c-3.6254272-33.3894043-3.5943604-67.1054077,0.1083374-100.5649414
			C410.9923401,674.3818359,407.2665405,669.5352173,401.8981934,668.8158569"/>
		<path fill="#009BEB" d="M432.7750549,906.1089478L262.9768677,976.34198
			c-5.1070862,2.1086426-7.5583038,7.9972534-5.371582,13.0621338
			c20.2962036,46.9796753,45.9138184,91.4859009,76.3278809,132.5148315
			c3.2947998,4.4108887,9.6311035,5.2823486,13.9989319,1.9143066l145.9546204-111.6275635
			c4.3017273-3.2518311,5.0879822-9.3355713,1.8903809-13.7313232c-19.81427-27.06427-36.657135-56.307251-50.1733398-87.1220093
			C443.4329529,906.3814697,437.7698669,904.024292,432.7750549,906.1089478"/>
		<path d="M863.5513306,444.039978c-170.0706177,0-293.1304321,130.628418-293.1304321,287.0546265
			c0,181.6112061,126.9107666,284.7747192,275.206543,284.7747192c30.3590698,0,69.5287476-3.8660278,92.7971191-13.7536011
			c5.2473755-2.2177734,8.296814-7.8028564,8.296814-13.4588623V852.0880127
			c0-6.6119385-6.2973022-11.2641602-12.6375732-9.4518433c-15.255188,4.3796997-34.777832,9.5379028-68.1712646,9.5379028
			c-53.9660645,0-116.0894775-38.5236206-116.0894775-125.5843506c0-68.4158325,53.3327637-118.8504639,115.8480835-118.8504639
			c78.0238647,0,125.8949585,54.4639282,125.8949585,126.5601196v258.2314453
			c0,5.4536743,4.4348145,9.8955688,9.9075317,9.8955688h159.6070557c5.4615479,0,9.8916016-4.4418945,9.8916016-9.8955688
			V726.380249C1170.97229,557.0600586,1049.6905518,444.039978,863.5513306,444.039978 M2286.8703613,457.4980469h-159.5998535
			c-5.4768066,0-9.8916016,4.422821-9.8916016,9.8844299v525.1483154c0,5.4536743,4.4147949,9.8955688,9.8916016,9.8955688
			h159.5998535c5.4768066,0,9.9116211-4.4418945,9.9116211-9.8955688V467.3824768
			C2296.7819824,461.9208679,2292.347168,457.4980469,2286.8703613,457.4980469 M2207.0725098,204.0670319
			c-57.1948242,0-102.0275879,43.747818-102.0275879,102.058609c0,58.2836304,44.8327637,102.0275269,102.0275879,102.0275269
			c57.1906738,0,102.0395508-43.7438965,102.0395508-102.0275269
			C2309.1120605,247.8148499,2264.2631836,204.0670319,2207.0725098,204.0670319 M2480.6723633,204.0670319
			c-57.2099609,0-102.0588379,43.747818-102.0588379,102.058609c0,58.2836304,44.848877,102.0275269,102.0588379,102.0275269
			c57.1796875,0,102.012207-43.7438965,102.012207-102.0275269
			C2582.6845703,247.8148499,2537.8520508,204.0670319,2480.6723633,204.0670319 M2560.4589844,457.4980469h-159.6037598
			c-5.4848633,0-9.8955078,4.422821-9.8955078,9.8844299v525.1483154c0,5.4536743,4.4106445,9.8955688,9.8955078,9.8955688
			h159.6037598c5.46875,0,9.902832-4.4418945,9.902832-9.8955688V467.3824768
			C2570.3618164,461.9208679,2565.9277344,457.4980469,2560.4589844,457.4980469 M3612.6311035,444.039978
			c-157.5263672,0-289.6835938,128.1008301-289.6835938,285.9186401
			c0,157.7987061,132.3825684,285.9107056,289.6835938,285.9107056
			c157.3088379,0,289.6992188-130.7567749,289.6992188-285.9107056
			C3902.3303223,574.7975464,3770.1730957,444.039978,3612.6311035,444.039978 M3612.6311035,852.0649414
			c-69.2443848,0-121.0324707-54.0823364-121.0324707-122.1063232c0-68.0159302,51.7880859-122.0990601,121.0324707-122.0990601
			c69.2451172,0,121.0722656,54.0831299,121.0722656,122.0990601
			C3733.7033691,797.982605,3681.8762207,852.0649414,3612.6311035,852.0649414 M1799.8370361,444.039978
			c-59.442749,0-115.4354248,24.4434204-160.1671143,73.3366089
			c-44.7324219-48.8931885-100.7050781-73.3366089-160.1717529-73.3366089
			c-124.5145264,0-223.3133545,78.9073486-223.3133545,209.6448975v338.8459473
			c0,5.4536743,4.43396,9.8955688,9.8917236,9.8955688h159.6188965c5.46875,0,9.9035645-4.4418945,9.9035645-9.8955688
			V672.5615845c0-35.4972534,25.8509521-55.8405151,57.1707764-55.8405151
			c31.3476562,0,57.2026367,20.4165039,57.2026367,55.8405151v319.9692383c0,5.4536743,4.43396,9.8955688,9.8996582,9.8955688
			h159.6149902c5.4456787,0,9.8796387-4.4418945,9.8796387-9.8955688V672.5615845
			c0-35.4240112,25.8708496-55.8405151,57.1906738-55.8405151c31.324585,0,57.1907959,20.3432617,57.1907959,55.8405151
			v319.9692383c0,5.4536743,4.4228516,9.8955688,9.8875732,9.8955688h159.6269531
			c5.4656982,0,9.8875732-4.4418945,9.8875732-9.8955688V653.6848755
			C2023.1502686,522.9473267,1924.359375,444.039978,1799.8370361,444.039978 M2980.3791504,444.039978
			c-31.2036133,0-59.8554688,7.1177979-80.6035156,13.8165283c-5.4145508,1.7581482-9.0710449,6.8182678-9.0710449,12.5523071
			v138.5093994c0,6.6358643,6.3945312,11.3502197,12.7197266,9.3156738
			c17.402832-5.5970459,41.9777832-10.4946289,63.7214355-10.4946289
			c74.4104004,0,120.6125488,55.1210938,120.6125488,122.2193604c0,68.3967896-48.6677246,124.3702393-122.6193848,122.1533203
			c-66.7636719-1.9915771-119.1738281-55.3585205-119.1738281-122.1533203v-502.545929
			c0-5.4608002-4.4267578-9.8876038-9.8876953-9.8876038h-159.6269531c-5.4536133,0-9.8876953,4.4268036-9.8876953,9.8876038
			v497.3647766c0,171.6924438,116.5285645,291.0918579,302.7849121,291.0918579
			c162.1862793,0,297.8286133-128.1119995,297.8286133-287.0466919
			C3267.1762695,569.0404053,3158.1704102,444.039978,2980.3791504,444.039978"/>
	</g>
</svg>
