<?xml version="1.0" standalone="no"?>
<!DOCTYPE svg PUBLIC "-//W3C//DTD SVG 20010904//EN"
 "http://www.w3.org/TR/2001/REC-SVG-20010904/DTD/svg10.dtd">
<svg version="1.0" xmlns="http://www.w3.org/2000/svg"
 width="512.000000pt" height="512.000000pt" viewBox="0 0 512.000000 512.000000"
 preserveAspectRatio="xMidYMid meet">
<metadata>
Created by potrace 1.11, written by Peter Selinger 2001-2013
</metadata>
<g transform="translate(0.000000,512.000000) scale(0.100000,-0.100000)"
fill="#000000" stroke="none">
<path d="M915 5109 c-319 -33 -605 -218 -771 -499 -75 -128 -117 -259 -133
-419 -15 -142 -15 -3120 0 -3262 16 -160 58 -291 133 -419 169 -287 450 -465
785 -499 142 -15 3120 -15 3262 0 160 16 291 58 419 133 287 169 465 450 499
785 15 142 15 3120 0 3262 -16 160 -58 291 -133 419 -169 287 -450 465 -785
499 -124 13 -3153 13 -3276 0z m1927 -595 c86 -55 184 -222 273 -464 83 -225
108 -384 120 -765 6 -191 -5 -624 -21 -865 l-7 -95 89 3 c403 16 770 -257 879
-653 22 -80 30 -271 16 -363 -42 -269 -218 -510 -466 -639 -438 -226 -980 -43
-1191 402 -16 33 -29 61 -30 63 -1 1 -32 -5 -69 -13 -47 -11 -109 -16 -199
-14 -72 1 -169 -3 -216 -9 -153 -20 -293 -24 -406 -13 -218 22 -316 63 -431
180 -212 214 -309 450 -242 588 37 77 122 128 266 159 92 20 406 24 516 6 62
-10 71 -9 103 10 19 11 59 28 90 37 l55 17 -34 45 c-136 182 -230 401 -272
634 -25 138 -40 664 -26 930 20 385 57 577 137 707 121 195 344 79 609 -317
l63 -95 16 69 c60 265 154 442 251 476 47 16 77 11 127 -21z"/>
</g>
</svg>
