<?xml version="1.0" standalone="no"?>
<!DOCTYPE svg PUBLIC "-//W3C//DTD SVG 20010904//EN" "http://www.w3.org/TR/2001/REC-SVG-20010904/DTD/svg10.dtd">
<svg version="1.0" xmlns="http://www.w3.org/2000/svg"
  width="700.000000pt" height="700.000000pt" viewBox="0 0 700.000000 700.000000"
  preserveAspectRatio="xMidYMid meet">
  <g transform="translate(0.000000,700.000000) scale(0.100000,-0.100000)"
  fill="#000000" stroke="none">
  <path d="M1180 6989 c-304 -39 -577 -175 -793 -395 -186 -189 -310 -425 -364
    -692 -17 -82 -18 -227 -18 -2402 0 -2232 1 -2318 19 -2405 116 -553 520 -956
    1076 -1072 80 -17 219 -18 2400 -18 2181 0 2320 1 2400 18 271 56 490 170 679
    352 205 196 329 418 394 705 l22 95 0 2320 c0 2185 -1 2325 -18 2407 -109 536
    -510 948 -1042 1070 l-100 22 -2295 2 c-1262 1 -2324 -2 -2360 -7z m1245
    -1257 c507 -397 1076 -482 1665 -250 201 79 445 225 615 368 l91 77 795 -634
    c437 -349 800 -640 807 -647 11 -11 -68 -95 -466 -495 -263 -264 -483 -481
    -488 -481 -5 0 -80 71 -166 157 -87 87 -158 153 -158 148 0 -6 32 -649 70
    -1430 38 -781 70 -1432 70 -1447 l0 -28 -1760 0 -1760 0 0 28 c0 15 32 664 70
    1442 39 778 70 1421 70 1430 0 8 -72 -57 -160 -145 l-160 -160 -486 486 -486
    486 808 645 808 646 86 -78 c47 -43 108 -96 135 -118z"/>
  <path d="M3410 4621 c-52 -17 -106 -51 -142 -88 -91 -95 -116 -241 -59 -358
    57 -119 161 -185 291 -185 125 0 229 63 288 175 24 44 27 61 27 145 0 108 -17
    153 -84 223 -58 62 -122 90 -216 93 -44 2 -91 0 -105 -5z"/>
  <path d="M3413 3506 c-157 -51 -240 -172 -231 -335 7 -124 70 -216 187 -272
    67 -33 196 -33 266 1 71 34 139 107 165 177 44 119 15 258 -73 346 -78 78
    -217 115 -314 83z"/>
  </g>
</svg>
