<svg xmlns="http://www.w3.org/2000/svg" viewBox="0 0 128 128"><g><path d="M106.86,39.07c.14.41,2.7,7.72-4.25,7.72C95.44,46.79,83.6,30,64,30s-31.44,16.8-38.61,16.8c-6.95,0-4.39-7.31-4.25-7.72A6.37,6.37,0,0,0,17.63,45c0,3.28,2.12,7.7,7.32,7.7A8.45,8.45,0,0,0,28.63,52c3.15,10.53,18.64,22.53,32.53,22.53,0,20-4.69,19.68-4.69,32S64,119.23,64,119.23s7.53-.43,7.53-12.73-4.69-12-4.69-32c13.89,0,29.38-12,32.53-22.53a8.45,8.45,0,0,0,3.68.67c5.2,0,7.32-4.42,7.32-7.7A6.37,6.37,0,0,0,106.86,39.07Z"/><path d="M97.85,16.05,98,37.68A59.25,59.25,0,0,0,91.26,32,41.87,41.87,0,0,0,81,27Z"/><polygon points="72.73 23.77 64 23.01 55.27 23.77 64 3.88 72.73 23.77"/><path d="M30.15,16.05,30,37.68A59.25,59.25,0,0,1,36.74,32,41.87,41.87,0,0,1,47,27Z"/></g></svg>